<?xml version="1.0" encoding="UTF-8" standalone="no"?>
<!DOCTYPE svg PUBLIC "-//W3C//DTD SVG 1.1//EN" "http://www.w3.org/Graphics/SVG/1.1/DTD/svg11.dtd">
<svg width="100%" height="100%" viewBox="0 0 2134 2134" version="1.1" xmlns="http://www.w3.org/2000/svg" xmlns:xlink="http://www.w3.org/1999/xlink" xml:space="preserve" xmlns:serif="http://www.serif.com/" style="fill-rule:evenodd;clip-rule:evenodd;stroke-linejoin:round;stroke-miterlimit:2;">
    <g transform="matrix(1,0,0,1,-7792.79,-6747.09)">
        <g id="logo" transform="matrix(4.16667,0,0,4.16667,7792.79,6747.09)">
            <path d="M512,256C512,114.71 397.29,-0 256,-0C114.71,-0 -0,114.71 -0,256C-0,397.29 114.71,512 256,512C397.29,512 512,397.29 512,256Z" style="fill:rgb(55,63,81);"/>
            <clipPath id="_clip1">
                <path d="M512,256C512,114.71 397.29,-0 256,-0C114.71,-0 -0,114.71 -0,256C-0,397.29 114.71,512 256,512C397.29,512 512,397.29 512,256Z"/>
            </clipPath>
            <g clip-path="url(#_clip1)">
                <g>
                    <g transform="matrix(1,0,0,1,1,1)">
                        <circle cx="256" cy="256" r="256" style="fill:rgb(55,63,81);"/>
                    </g>
                    <g transform="matrix(2.98544,0,0,9.97166,-446.149,-2897.02)">
                        <rect x="137.742" y="316.198" width="195.568" height="39.317" style="fill-opacity:0.5;"/>
                    </g>
                    <g transform="matrix(1,0,0,1,1,41.1498)">
                        <g transform="matrix(1,0,0,1,-8.52651e-14,-120.746)">
                            <g transform="matrix(1.42596,0,0,1.4244,-109.045,-89.9093)">
                                <path d="M193,302L193,27.479L319,27.479L319,302" style="fill:rgb(240,165,80);fill-opacity:0.5;"/>
                            </g>
                            <g transform="matrix(0.816684,0,0,1.4244,46.929,-89.9093)">
                                <path d="M193,302L193,27.479L319,27.479L319,302" style="fill:rgb(240,165,80);"/>
                            </g>
                        </g>
                        <g transform="matrix(1,0,0,1,-5.68434e-14,-144.408)">
                            <g transform="matrix(0.467562,0,0,0.467562,136.304,242.814)">
                                <path d="M339.168,399.108C339.168,410.698 301.902,420.108 256,420.108C210.098,420.108 172.832,410.698 172.832,399.108L172.832,334.005L339.168,334.005L339.168,399.108Z" style="fill:rgb(52,85,101);"/>
                                <clipPath id="_clip2">
                                    <path d="M339.168,399.108C339.168,410.698 301.902,420.108 256,420.108C210.098,420.108 172.832,410.698 172.832,399.108L172.832,334.005L339.168,334.005L339.168,399.108Z"/>
                                </clipPath>
                                <g clip-path="url(#_clip2)">
                                    <g transform="matrix(2.13875,-8.01517e-18,8.01517e-18,2.13875,-421.985,-312.086)">
                                        <rect x="141" y="233" width="176" height="130" style="fill:white;fill-opacity:0.1;"/>
                                    </g>
                                </g>
                            </g>
                            <g transform="matrix(1.08017,0,0,1.08017,-20.5232,-20.5232)">
                                <path d="M339.168,376.005C339.168,387.596 301.902,397.005 256,397.005C210.098,397.005 172.832,387.596 172.832,376.005L172.832,334.005L339.168,334.005L339.168,376.005Z" style="fill:rgb(78,128,152);"/>
                                <clipPath id="_clip3">
                                    <path d="M339.168,376.005C339.168,387.596 301.902,397.005 256,397.005C210.098,397.005 172.832,387.596 172.832,376.005L172.832,334.005L339.168,334.005L339.168,376.005Z"/>
                                </clipPath>
                                <g clip-path="url(#_clip3)">
                                    <g transform="matrix(0.925781,-3.46945e-18,3.46945e-18,0.925781,-37.4727,108.703)">
                                        <rect x="141" y="233" width="176" height="130" style="fill:white;fill-opacity:0.3;"/>
                                    </g>
                                </g>
                            </g>
                            <g transform="matrix(1.08017,0,0,1.08017,-20.5232,-65.8844)">
                                <ellipse cx="256" cy="376" rx="83.168" ry="21" style="fill:white;"/>
                                <clipPath id="_clip4">
                                    <ellipse cx="256" cy="376" rx="83.168" ry="21"/>
                                </clipPath>
                                <g clip-path="url(#_clip4)">
                                    <g transform="matrix(0.925781,0,0,0.107409,19,360.453)">
                                        <g opacity="0.3">
                                            <g transform="matrix(1.42596,0,0,1.4244,-109.045,-89.9093)">
                                                <path d="M193,302L193,27.479L319,27.479L319,302" style="fill:rgb(240,165,80);fill-opacity:0.5;"/>
                                            </g>
                                            <g transform="matrix(0.816684,0,0,1.4244,46.929,-89.9093)">
                                                <path d="M193,302L193,27.479L319,27.479L319,302" style="fill:rgb(240,165,80);"/>
                                            </g>
                                        </g>
                                    </g>
                                </g>
                            </g>
                        </g>
                    </g>
                </g>
                <g>
                    <g transform="matrix(1,0,0,1,1,1)">
                        <circle cx="256" cy="256" r="256" style="fill:rgb(55,63,81);"/>
                    </g>
                    <g transform="matrix(2.98544,0,0,9.97166,-446.149,-2897.02)">
                        <rect x="137.742" y="316.198" width="195.568" height="39.317" style="fill-opacity:0.5;"/>
                    </g>
                    <g transform="matrix(1,0,0,1,1,41.1498)">
                        <g transform="matrix(1,0,0,1,-8.52651e-14,-120.746)">
                            <g transform="matrix(1.42596,0,0,1.4244,-109.045,-89.9093)">
                                <path d="M193,302L193,27.479L319,27.479L319,302" style="fill:rgb(240,165,80);fill-opacity:0.5;"/>
                            </g>
                            <g transform="matrix(0.816684,0,0,1.4244,46.929,-89.9093)">
                                <path d="M193,302L193,27.479L319,27.479L319,302" style="fill:rgb(240,165,80);"/>
                            </g>
                        </g>
                        <g transform="matrix(1,0,0,1,-5.68434e-14,-144.408)">
                            <g transform="matrix(0.467562,0,0,0.467562,136.304,242.814)">
                                <path d="M339.168,399.108C339.168,410.698 301.902,420.108 256,420.108C210.098,420.108 172.832,410.698 172.832,399.108L172.832,334.005L339.168,334.005L339.168,399.108Z" style="fill:rgb(52,85,101);"/>
                                <clipPath id="_clip5">
                                    <path d="M339.168,399.108C339.168,410.698 301.902,420.108 256,420.108C210.098,420.108 172.832,410.698 172.832,399.108L172.832,334.005L339.168,334.005L339.168,399.108Z"/>
                                </clipPath>
                                <g clip-path="url(#_clip5)">
                                    <g transform="matrix(2.13875,-8.01517e-18,8.01517e-18,2.13875,-421.985,-312.086)">
                                        <rect x="141" y="233" width="176" height="130" style="fill:white;fill-opacity:0.1;"/>
                                    </g>
                                </g>
                            </g>
                            <g transform="matrix(1.08017,0,0,1.08017,-20.5232,-20.5232)">
                                <path d="M339.168,376.005C339.168,387.596 301.902,397.005 256,397.005C210.098,397.005 172.832,387.596 172.832,376.005L172.832,334.005L339.168,334.005L339.168,376.005Z" style="fill:rgb(78,128,152);"/>
                                <clipPath id="_clip6">
                                    <path d="M339.168,376.005C339.168,387.596 301.902,397.005 256,397.005C210.098,397.005 172.832,387.596 172.832,376.005L172.832,334.005L339.168,334.005L339.168,376.005Z"/>
                                </clipPath>
                                <g clip-path="url(#_clip6)">
                                    <g transform="matrix(0.925781,-3.46945e-18,3.46945e-18,0.925781,-37.4727,108.703)">
                                        <rect x="141" y="233" width="176" height="130" style="fill:white;fill-opacity:0.3;"/>
                                    </g>
                                </g>
                            </g>
                            <g transform="matrix(1.08017,0,0,1.08017,-20.5232,-65.8844)">
                                <ellipse cx="256" cy="376" rx="83.168" ry="21" style="fill:white;"/>
                                <clipPath id="_clip7">
                                    <ellipse cx="256" cy="376" rx="83.168" ry="21"/>
                                </clipPath>
                                <g clip-path="url(#_clip7)">
                                    <g transform="matrix(0.925781,0,0,0.107409,19,360.453)">
                                        <g opacity="0.3">
                                            <g transform="matrix(1.42596,0,0,1.4244,-109.045,-89.9093)">
                                                <path d="M193,302L193,27.479L319,27.479L319,302" style="fill:rgb(240,165,80);fill-opacity:0.5;"/>
                                            </g>
                                            <g transform="matrix(0.816684,0,0,1.4244,46.929,-89.9093)">
                                                <path d="M193,302L193,27.479L319,27.479L319,302" style="fill:rgb(240,165,80);"/>
                                            </g>
                                        </g>
                                    </g>
                                </g>
                            </g>
                        </g>
                    </g>
                </g>
                <g>
                    <g transform="matrix(1,0,0,1,1,1)">
                        <circle cx="256" cy="256" r="256" style="fill:rgb(55,63,81);"/>
                    </g>
                    <g transform="matrix(2.98544,0,0,9.97166,-446.149,-2897.02)">
                        <rect x="137.742" y="316.198" width="195.568" height="39.317" style="fill-opacity:0.5;"/>
                    </g>
                    <g transform="matrix(1,0,0,1,1,41.1498)">
                        <g transform="matrix(1,0,0,1,-8.52651e-14,-120.746)">
                            <g transform="matrix(1.42596,0,0,1.4244,-109.045,-89.9093)">
                                <path d="M193,302L193,27.479L319,27.479L319,302" style="fill:rgb(240,165,80);fill-opacity:0.5;"/>
                            </g>
                            <g transform="matrix(0.816684,0,0,1.4244,46.929,-89.9093)">
                                <path d="M193,302L193,27.479L319,27.479L319,302" style="fill:rgb(240,165,80);"/>
                            </g>
                        </g>
                        <g transform="matrix(1,0,0,1,-5.68434e-14,-144.408)">
                            <g transform="matrix(0.467562,0,0,0.467562,136.304,242.814)">
                                <path d="M339.168,399.108C339.168,410.698 301.902,420.108 256,420.108C210.098,420.108 172.832,410.698 172.832,399.108L172.832,334.005L339.168,334.005L339.168,399.108Z" style="fill:rgb(52,85,101);"/>
                                <clipPath id="_clip8">
                                    <path d="M339.168,399.108C339.168,410.698 301.902,420.108 256,420.108C210.098,420.108 172.832,410.698 172.832,399.108L172.832,334.005L339.168,334.005L339.168,399.108Z"/>
                                </clipPath>
                                <g clip-path="url(#_clip8)">
                                    <g transform="matrix(2.13875,-8.01517e-18,8.01517e-18,2.13875,-421.985,-312.086)">
                                        <rect x="141" y="233" width="176" height="130" style="fill:white;fill-opacity:0.1;"/>
                                    </g>
                                </g>
                            </g>
                            <g transform="matrix(1.08017,0,0,1.08017,-20.5232,-20.5232)">
                                <path d="M339.168,376.005C339.168,387.596 301.902,397.005 256,397.005C210.098,397.005 172.832,387.596 172.832,376.005L172.832,334.005L339.168,334.005L339.168,376.005Z" style="fill:rgb(78,128,152);"/>
                                <clipPath id="_clip9">
                                    <path d="M339.168,376.005C339.168,387.596 301.902,397.005 256,397.005C210.098,397.005 172.832,387.596 172.832,376.005L172.832,334.005L339.168,334.005L339.168,376.005Z"/>
                                </clipPath>
                                <g clip-path="url(#_clip9)">
                                    <g transform="matrix(0.925781,-3.46945e-18,3.46945e-18,0.925781,-37.4727,108.703)">
                                        <rect x="141" y="233" width="176" height="130" style="fill:white;fill-opacity:0.3;"/>
                                    </g>
                                </g>
                            </g>
                            <g transform="matrix(1.08017,0,0,1.08017,-20.5232,-65.8844)">
                                <ellipse cx="256" cy="376" rx="83.168" ry="21" style="fill:white;"/>
                                <clipPath id="_clip10">
                                    <ellipse cx="256" cy="376" rx="83.168" ry="21"/>
                                </clipPath>
                                <g clip-path="url(#_clip10)">
                                    <g transform="matrix(0.925781,0,0,0.107409,19,360.453)">
                                        <g opacity="0.3">
                                            <g transform="matrix(1.42596,0,0,1.4244,-109.045,-89.9093)">
                                                <path d="M193,302L193,27.479L319,27.479L319,302" style="fill:rgb(240,165,80);fill-opacity:0.5;"/>
                                            </g>
                                            <g transform="matrix(0.816684,0,0,1.4244,46.929,-89.9093)">
                                                <path d="M193,302L193,27.479L319,27.479L319,302" style="fill:rgb(240,165,80);"/>
                                            </g>
                                        </g>
                                    </g>
                                </g>
                            </g>
                        </g>
                    </g>
                </g>
                <g>
                    <g transform="matrix(1,0,0,1,1,1)">
                        <circle cx="256" cy="256" r="256" style="fill:rgb(55,63,81);"/>
                    </g>
                    <g transform="matrix(2.98544,0,0,9.97166,-446.149,-2897.02)">
                        <rect x="137.742" y="316.198" width="195.568" height="39.317" style="fill-opacity:0.5;"/>
                    </g>
                    <g transform="matrix(1,0,0,1,1,41.1498)">
                        <g transform="matrix(1,0,0,1,-8.52651e-14,-120.746)">
                            <g transform="matrix(1.42596,0,0,1.4244,-109.045,-89.9093)">
                                <path d="M193,302L193,27.479L319,27.479L319,302" style="fill:rgb(240,165,80);fill-opacity:0.5;"/>
                            </g>
                            <g transform="matrix(0.816684,0,0,1.4244,46.929,-89.9093)">
                                <path d="M193,302L193,27.479L319,27.479L319,302" style="fill:rgb(240,165,80);"/>
                            </g>
                        </g>
                        <g transform="matrix(1,0,0,1,-5.68434e-14,-144.408)">
                            <g transform="matrix(0.467562,0,0,0.467562,136.304,242.814)">
                                <path d="M339.168,399.108C339.168,410.698 301.902,420.108 256,420.108C210.098,420.108 172.832,410.698 172.832,399.108L172.832,334.005L339.168,334.005L339.168,399.108Z" style="fill:rgb(52,85,101);"/>
                                <clipPath id="_clip11">
                                    <path d="M339.168,399.108C339.168,410.698 301.902,420.108 256,420.108C210.098,420.108 172.832,410.698 172.832,399.108L172.832,334.005L339.168,334.005L339.168,399.108Z"/>
                                </clipPath>
                                <g clip-path="url(#_clip11)">
                                    <g transform="matrix(2.13875,-8.01517e-18,8.01517e-18,2.13875,-421.985,-312.086)">
                                        <rect x="141" y="233" width="176" height="130" style="fill:white;fill-opacity:0.1;"/>
                                    </g>
                                </g>
                            </g>
                            <g transform="matrix(1.08017,0,0,1.08017,-20.5232,-20.5232)">
                                <path d="M339.168,376.005C339.168,387.596 301.902,397.005 256,397.005C210.098,397.005 172.832,387.596 172.832,376.005L172.832,334.005L339.168,334.005L339.168,376.005Z" style="fill:rgb(78,128,152);"/>
                                <clipPath id="_clip12">
                                    <path d="M339.168,376.005C339.168,387.596 301.902,397.005 256,397.005C210.098,397.005 172.832,387.596 172.832,376.005L172.832,334.005L339.168,334.005L339.168,376.005Z"/>
                                </clipPath>
                                <g clip-path="url(#_clip12)">
                                    <g transform="matrix(0.925781,-3.46945e-18,3.46945e-18,0.925781,-37.4727,108.703)">
                                        <rect x="141" y="233" width="176" height="130" style="fill:white;fill-opacity:0.3;"/>
                                    </g>
                                </g>
                            </g>
                            <g transform="matrix(1.08017,0,0,1.08017,-20.5232,-65.8844)">
                                <ellipse cx="256" cy="376" rx="83.168" ry="21" style="fill:white;"/>
                                <clipPath id="_clip13">
                                    <ellipse cx="256" cy="376" rx="83.168" ry="21"/>
                                </clipPath>
                                <g clip-path="url(#_clip13)">
                                    <g transform="matrix(0.925781,0,0,0.107409,19,360.453)">
                                        <g opacity="0.3">
                                            <g transform="matrix(1.42596,0,0,1.4244,-109.045,-89.9093)">
                                                <path d="M193,302L193,27.479L319,27.479L319,302" style="fill:rgb(240,165,80);fill-opacity:0.5;"/>
                                            </g>
                                            <g transform="matrix(0.816684,0,0,1.4244,46.929,-89.9093)">
                                                <path d="M193,302L193,27.479L319,27.479L319,302" style="fill:rgb(240,165,80);"/>
                                            </g>
                                        </g>
                                    </g>
                                </g>
                            </g>
                        </g>
                    </g>
                </g>
            </g>
        </g>
    </g>
</svg>
